<svg width="21" height="18" viewBox="0 0 21 18" fill="none" xmlns="http://www.w3.org/2000/svg">
<path d="M1.26222 10.4788C1.34814 10.4928 1.4351 10.4992 1.52211 10.4981L16.3372 10.4981L16.0141 10.6483C15.6984 10.7978 15.4111 11.0012 15.1652 11.2494L11.0107 15.4039C10.4635 15.9262 10.3716 16.7664 10.7928 17.3947C11.2831 18.0643 12.2232 18.2096 12.8928 17.7194C12.9469 17.6798 12.9983 17.6366 13.0466 17.5901L20.5593 10.0774C21.1464 9.49092 21.147 8.53958 20.5605 7.95246C20.5601 7.95208 20.5597 7.95166 20.5593 7.95128L13.0466 0.438591C12.459 -0.147352 11.5077 -0.146038 10.9217 0.441548C10.8756 0.487798 10.8325 0.537006 10.7928 0.588844C10.3716 1.21714 10.4635 2.05739 11.0107 2.57971L15.1577 6.74174C15.3781 6.96243 15.6316 7.14747 15.909 7.29017L16.3597 7.49301L1.60479 7.49301C0.837232 7.46451 0.163813 8.00068 0.0196161 8.75514C-0.113218 9.57426 0.443098 10.346 1.26222 10.4788Z" fill="#B9FF66"/>
</svg>
