<?xml version="1.0" encoding="UTF-8"?>
<!DOCTYPE svg PUBLIC "-//W3C//DTD SVG 1.1//EN" "http://www.w3.org/Graphics/SVG/1.1/DTD/svg11.dtd">
<!-- Creator: CorelDRAW X7 -->
<svg xmlns="http://www.w3.org/2000/svg" xml:space="preserve" width="1493.32mm" height="1493.32mm" version="1.1" style="shape-rendering:geometricPrecision; text-rendering:geometricPrecision; image-rendering:optimizeQuality; fill-rule:evenodd; clip-rule:evenodd"
viewBox="0 0 54663 54663"
 xmlns:xlink="http://www.w3.org/1999/xlink">
 <defs>
  <style type="text/css">
   <![CDATA[
    .fil0 {fill:white}
   ]]>
  </style>
 </defs>
 <g id="Слой_x0020_1">
  <metadata id="CorelCorpID_0Corel-Layer"/>
  <g id="_772051936">
   <g>
    <path class="fil0" d="M27332 0c-15095,0 -27332,12237 -27332,27332 0,15094 12237,27331 27332,27331 15094,0 27331,-12237 27331,-27331 0,-15095 -12237,-27332 -27331,-27332zm13864 30288c1274,1244 2621,2415 3765,3788 506,607 984,1235 1347,1941 519,1007 51,2112 -851,2172l-5599 -1c-1446,119 -2597,-464 -3567,-1453 -775,-788 -1494,-1629 -2240,-2444 -304,-334 -625,-649 -1008,-897 -763,-497 -1426,-344 -1864,453 -445,811 -547,1711 -590,2614 -60,1320 -459,1665 -1783,1727 -2831,133 -5517,-297 -8013,-1724 -2203,-1259 -3907,-3035 -5392,-5047 -2893,-3921 -5108,-8225 -7098,-12652 -448,-997 -120,-1531 980,-1551 1828,-36 3655,-31 5483,-2 743,12 1235,437 1521,1139 988,2430 2198,4742 3716,6886 404,571 817,1140 1404,1543 649,445 1143,298 1449,-426 196,-460 280,-952 323,-1445 145,-1690 163,-3378 -89,-5061 -157,-1053 -749,-1733 -1799,-1932 -534,-101 -456,-299 -196,-605 451,-528 874,-854 1719,-854l6326 -1c998,195 1221,643 1356,1647l6 7031c-12,388 195,1540 893,1795 559,184 928,-264 1263,-618 1517,-1610 2598,-3511 3566,-5477 427,-868 795,-1765 1153,-2664 266,-665 680,-992 1431,-981l6092 7c179,0 362,2 539,32 1027,176 1308,618 991,1619 -500,1574 -1472,2885 -2421,4199 -1018,1407 -2103,2765 -3111,4178 -925,1291 -852,1942 298,3064z"/>
   </g>
   <g>
   </g>
   <g>
   </g>
   <g>
   </g>
   <g>
   </g>
   <g>
   </g>
   <g>
   </g>
   <g>
   </g>
   <g>
   </g>
   <g>
   </g>
   <g>
   </g>
   <g>
   </g>
   <g>
   </g>
   <g>
   </g>
   <g>
   </g>
   <g>
   </g>
  </g>
 </g>
</svg>
